<mxfile host="app.diagrams.net" agent="Mozilla/5.0 (Windows NT 10.0; Win64; x64) AppleWebKit/537.36 (KHTML, like Gecko) Chrome/133.0.0.0 Safari/537.36" border="50" scale="3" compressed="false" locked="false" version="26.0.11">
  <diagram name="Blank" id="YmL12bMKpDGza6XwsDPr">
    <mxGraphModel dx="1728" dy="915" grid="0" gridSize="10" guides="1" tooltips="1" connect="1" arrows="1" fold="1" page="0" pageScale="1" pageWidth="827" pageHeight="1169" background="none" math="1" shadow="0">
      <root>
        <mxCell id="X5NqExCQtvZxIxQ7pmgY-0" />
        <mxCell id="1" parent="X5NqExCQtvZxIxQ7pmgY-0" />
        <mxCell id="tSVg1m18m8h1Xw_M8HOY-2" value="" style="rounded=0;whiteSpace=wrap;html=1;" vertex="1" parent="1">
          <mxGeometry x="79" y="136" width="705" height="480" as="geometry" />
        </mxCell>
        <mxCell id="tSVg1m18m8h1Xw_M8HOY-5" value="" style="edgeStyle=orthogonalEdgeStyle;rounded=0;orthogonalLoop=1;jettySize=auto;html=1;" edge="1" parent="1" source="tSVg1m18m8h1Xw_M8HOY-3" target="tSVg1m18m8h1Xw_M8HOY-4">
          <mxGeometry relative="1" as="geometry" />
        </mxCell>
        <mxCell id="tSVg1m18m8h1Xw_M8HOY-6" value="" style="edgeStyle=orthogonalEdgeStyle;rounded=0;orthogonalLoop=1;jettySize=auto;html=1;" edge="1" parent="1" source="tSVg1m18m8h1Xw_M8HOY-3" target="tSVg1m18m8h1Xw_M8HOY-4">
          <mxGeometry relative="1" as="geometry" />
        </mxCell>
        <mxCell id="tSVg1m18m8h1Xw_M8HOY-8" style="edgeStyle=orthogonalEdgeStyle;rounded=0;orthogonalLoop=1;jettySize=auto;html=1;entryX=0;entryY=0.5;entryDx=0;entryDy=0;" edge="1" parent="1" source="tSVg1m18m8h1Xw_M8HOY-3" target="tSVg1m18m8h1Xw_M8HOY-7">
          <mxGeometry relative="1" as="geometry" />
        </mxCell>
        <mxCell id="tSVg1m18m8h1Xw_M8HOY-3" value="" style="rounded=1;whiteSpace=wrap;html=1;" vertex="1" parent="1">
          <mxGeometry x="144" y="222" width="120" height="60" as="geometry" />
        </mxCell>
        <mxCell id="tSVg1m18m8h1Xw_M8HOY-4" value="" style="rounded=1;whiteSpace=wrap;html=1;" vertex="1" parent="1">
          <mxGeometry x="402" y="222" width="120" height="60" as="geometry" />
        </mxCell>
        <mxCell id="tSVg1m18m8h1Xw_M8HOY-7" value="" style="rounded=1;whiteSpace=wrap;html=1;" vertex="1" parent="1">
          <mxGeometry x="402" y="295" width="120" height="60" as="geometry" />
        </mxCell>
        <mxCell id="tSVg1m18m8h1Xw_M8HOY-9" value="" style="rounded=1;whiteSpace=wrap;html=1;" vertex="1" parent="1">
          <mxGeometry x="402" y="368" width="120" height="60" as="geometry" />
        </mxCell>
      </root>
    </mxGraphModel>
  </diagram>
</mxfile>
